<svg width="56" height="50" viewBox="0 0 56 50" fill="none" xmlns="http://www.w3.org/2000/svg">
<path d="M28 14C29.7857 6.76293 36.5301 3.06762 51.2143 3.00001C51.449 2.9991 51.6816 3.0459 51.8987 3.13772C52.1157 3.22953 52.3129 3.36453 52.4789 3.53496C52.6449 3.70538 52.7764 3.90785 52.8659 4.13069C52.9553 4.35353 53.0009 4.59233 53 4.83335V37.8333C53 38.3196 52.8119 38.7859 52.477 39.1297C52.1421 39.4735 51.6879 39.6667 51.2143 39.6667C36.9286 39.6667 31.4096 42.6241 28 47M28 14C26.2143 6.76293 19.4699 3.06762 4.78573 3.00001C4.55097 2.9991 4.31837 3.0459 4.10132 3.13772C3.88426 3.22953 3.68706 3.36453 3.52106 3.53496C3.35507 3.70538 3.22357 3.90785 3.13414 4.13069C3.04471 4.35353 2.99913 4.59233 3.00001 4.83335V37.6122C3.00001 38.7443 3.68305 39.6667 4.78573 39.6667C19.0714 39.6667 24.6105 42.6458 28 47M28 14V47" stroke="white" stroke-width="5" stroke-linecap="round" stroke-linejoin="round"/>
</svg>
