<svg width="199" height="50" viewBox="0 0 199 50" fill="none" xmlns="http://www.w3.org/2000/svg">
<path d="M28 14C29.7857 6.76293 36.5301 3.06762 51.2143 3.00001C51.449 2.9991 51.6816 3.0459 51.8987 3.13772C52.1157 3.22953 52.3129 3.36453 52.4789 3.53496C52.6449 3.70538 52.7764 3.90785 52.8659 4.13069C52.9553 4.35353 53.0009 4.59233 53 4.83335V37.8333C53 38.3196 52.8119 38.7859 52.477 39.1297C52.1421 39.4735 51.6879 39.6667 51.2143 39.6667C36.9286 39.6667 31.4096 42.6241 28 47M28 14C26.2143 6.76293 19.4699 3.06762 4.78573 3.00001C4.55097 2.9991 4.31837 3.0459 4.10132 3.13772C3.88426 3.22953 3.68706 3.36453 3.52106 3.53496C3.35507 3.70538 3.22357 3.90785 3.13414 4.13069C3.04471 4.35353 2.99913 4.59233 3.00001 4.83335V37.6122C3.00001 38.7443 3.68305 39.6667 4.78573 39.6667C19.0714 39.6667 24.6105 42.6458 28 47M28 14V47" stroke="black" stroke-width="5" stroke-linecap="round" stroke-linejoin="round"/>
<path d="M76.2119 20.5653C76.1437 19.8778 75.8511 19.3437 75.334 18.9631C74.817 18.5824 74.1153 18.392 73.2289 18.392C72.6267 18.392 72.1181 18.4773 71.7034 18.6477C71.2886 18.8125 70.9704 19.0426 70.7488 19.3381C70.5329 19.6335 70.425 19.9688 70.425 20.3438C70.4136 20.6562 70.4789 20.929 70.621 21.1619C70.7687 21.3949 70.9704 21.5966 71.2261 21.767C71.4818 21.9318 71.7772 22.0767 72.1125 22.2017C72.4477 22.321 72.8056 22.4233 73.1863 22.5085L74.7545 22.8835C75.5159 23.054 76.2147 23.2812 76.8511 23.5653C77.4875 23.8494 78.0386 24.1989 78.5045 24.6136C78.9704 25.0284 79.3312 25.517 79.5869 26.0795C79.8483 26.642 79.9818 27.2869 79.9875 28.0142C79.9818 29.0824 79.709 30.0085 79.1693 30.7926C78.6352 31.571 77.8625 32.1761 76.8511 32.608C75.8454 33.0341 74.6323 33.2472 73.2119 33.2472C71.8028 33.2472 70.5755 33.0312 69.5301 32.5994C68.4903 32.1676 67.6778 31.5284 67.0926 30.6818C66.513 29.8295 66.209 28.7756 66.1806 27.5199H69.7517C69.7914 28.1051 69.959 28.5937 70.2545 28.9858C70.5556 29.3722 70.9562 29.6648 71.4562 29.8636C71.9619 30.0568 72.5329 30.1534 73.1693 30.1534C73.7943 30.1534 74.3369 30.0625 74.7971 29.8807C75.263 29.6989 75.6238 29.446 75.8795 29.1222C76.1352 28.7983 76.263 28.4261 76.263 28.0057C76.263 27.6136 76.1465 27.2841 75.9136 27.017C75.6863 26.75 75.3511 26.5227 74.9079 26.3352C74.4704 26.1477 73.9335 25.9773 73.2971 25.8239L71.3965 25.3466C69.925 24.9886 68.763 24.429 67.9108 23.6676C67.0585 22.9062 66.6352 21.8807 66.6409 20.5909C66.6352 19.5341 66.9164 18.6108 67.4846 17.821C68.0585 17.0312 68.8454 16.4148 69.8454 15.9716C70.8454 15.5284 71.9818 15.3068 73.2545 15.3068C74.55 15.3068 75.6806 15.5284 76.6465 15.9716C77.6181 16.4148 78.3738 17.0312 78.9136 17.821C79.4534 18.6108 79.7318 19.5256 79.7488 20.5653H76.2119ZM83.1215 33V19.9091H86.5817V22.2188H86.7352C87.0079 21.4517 87.4624 20.8466 88.0988 20.4034C88.7352 19.9602 89.4965 19.7386 90.3829 19.7386C91.2806 19.7386 92.0448 19.9631 92.6755 20.4119C93.3062 20.8551 93.7266 21.4574 93.9369 22.2188H94.0732C94.3403 21.4688 94.8232 20.8693 95.5221 20.4205C96.2266 19.9659 97.059 19.7386 98.0192 19.7386C99.2408 19.7386 100.232 20.1278 100.994 20.9062C101.761 21.679 102.144 22.7756 102.144 24.196V33H98.5221V24.9119C98.5221 24.1847 98.3289 23.6392 97.9425 23.2756C97.5562 22.9119 97.0732 22.7301 96.4937 22.7301C95.8346 22.7301 95.3204 22.9403 94.9511 23.3608C94.5817 23.7756 94.3971 24.3239 94.3971 25.0057V33H90.8772V24.8352C90.8772 24.1932 90.6925 23.6818 90.3232 23.3011C89.9596 22.9205 89.4795 22.7301 88.8829 22.7301C88.4795 22.7301 88.1158 22.8324 87.792 23.0369C87.4738 23.2358 87.221 23.517 87.0335 23.8807C86.846 24.2386 86.7522 24.6591 86.7522 25.142V33H83.1215ZM109.465 33.2472C108.63 33.2472 107.886 33.1023 107.232 32.8125C106.579 32.517 106.062 32.0824 105.681 31.5085C105.306 30.929 105.119 30.2074 105.119 29.3438C105.119 28.6165 105.252 28.0057 105.519 27.5114C105.786 27.017 106.15 26.6193 106.61 26.3182C107.07 26.017 107.593 25.7898 108.178 25.6364C108.769 25.483 109.388 25.375 110.036 25.3125C110.797 25.233 111.411 25.1591 111.877 25.0909C112.343 25.017 112.681 24.9091 112.891 24.767C113.101 24.625 113.207 24.4148 113.207 24.1364V24.0852C113.207 23.5455 113.036 23.1278 112.695 22.8324C112.36 22.5369 111.883 22.3892 111.263 22.3892C110.61 22.3892 110.09 22.5341 109.704 22.8239C109.317 23.108 109.062 23.4659 108.937 23.8977L105.579 23.625C105.749 22.8295 106.084 22.142 106.584 21.5625C107.084 20.9773 107.729 20.5284 108.519 20.2159C109.315 19.8977 110.235 19.7386 111.28 19.7386C112.008 19.7386 112.704 19.8239 113.369 19.9943C114.039 20.1648 114.633 20.429 115.15 20.7869C115.672 21.1449 116.084 21.6051 116.386 22.1676C116.687 22.7244 116.837 23.392 116.837 24.1705V33H113.394V31.1847H113.292C113.082 31.5938 112.8 31.9545 112.448 32.267C112.096 32.5739 111.672 32.8153 111.178 32.9915C110.684 33.1619 110.113 33.2472 109.465 33.2472ZM110.505 30.7415C111.039 30.7415 111.511 30.6364 111.92 30.4261C112.329 30.2102 112.65 29.9205 112.883 29.5568C113.116 29.1932 113.232 28.7812 113.232 28.321V26.9318C113.119 27.0057 112.962 27.0739 112.763 27.1364C112.57 27.1932 112.351 27.2472 112.107 27.2983C111.863 27.3437 111.619 27.3864 111.374 27.4261C111.13 27.4602 110.908 27.4915 110.709 27.5199C110.283 27.5824 109.911 27.6818 109.593 27.8182C109.275 27.9545 109.028 28.1392 108.851 28.3722C108.675 28.5994 108.587 28.8835 108.587 29.2244C108.587 29.7188 108.766 30.0966 109.124 30.358C109.488 30.6136 109.948 30.7415 110.505 30.7415ZM120.374 33V19.9091H123.894V22.1932H124.03C124.269 21.3807 124.669 20.767 125.232 20.3523C125.794 19.9318 126.442 19.7216 127.175 19.7216C127.357 19.7216 127.553 19.733 127.763 19.7557C127.973 19.7784 128.158 19.8097 128.317 19.8494V23.071C128.147 23.0199 127.911 22.9744 127.61 22.9347C127.309 22.8949 127.033 22.875 126.783 22.875C126.249 22.875 125.772 22.9915 125.351 23.2244C124.937 23.4517 124.607 23.7699 124.363 24.179C124.124 24.5881 124.005 25.0597 124.005 25.5938V33H120.374ZM138.534 19.9091V22.6364H130.65V19.9091H138.534ZM132.44 16.7727H136.071V28.9773C136.071 29.3125 136.122 29.5739 136.224 29.7614C136.326 29.9432 136.468 30.071 136.65 30.1449C136.838 30.2187 137.054 30.2557 137.298 30.2557C137.468 30.2557 137.639 30.2415 137.809 30.2131C137.98 30.179 138.11 30.1534 138.201 30.1364L138.772 32.8381C138.59 32.8949 138.335 32.9602 138.005 33.0341C137.676 33.1136 137.275 33.1619 136.804 33.179C135.929 33.2131 135.161 33.0966 134.502 32.8295C133.849 32.5625 133.34 32.1477 132.977 31.5852C132.613 31.0227 132.434 30.3125 132.44 29.4545V16.7727ZM141.968 33V15.5455H153.73V18.5881H145.658V22.7472H153.124V25.7898H145.658V29.9574H153.764V33H141.968ZM162.139 33.2131C161.145 33.2131 160.244 32.9574 159.437 32.446C158.636 31.929 158 31.1705 157.528 30.1705C157.062 29.1648 156.829 27.9318 156.829 26.4716C156.829 24.9716 157.071 23.7244 157.554 22.7301C158.037 21.7301 158.679 20.983 159.48 20.4886C160.287 19.9886 161.17 19.7386 162.131 19.7386C162.864 19.7386 163.474 19.8636 163.963 20.1136C164.457 20.358 164.855 20.6648 165.156 21.0341C165.463 21.3977 165.696 21.7557 165.855 22.108H165.966V15.5455H169.588V33H166.008V30.9034H165.855C165.685 31.267 165.443 31.6278 165.131 31.9858C164.824 32.3381 164.423 32.6307 163.929 32.8636C163.44 33.0966 162.844 33.2131 162.139 33.2131ZM163.29 30.3239C163.875 30.3239 164.369 30.1648 164.773 29.8466C165.182 29.5227 165.494 29.071 165.71 28.4915C165.932 27.9119 166.043 27.233 166.043 26.4545C166.043 25.6761 165.935 25 165.719 24.4261C165.503 23.8523 165.19 23.4091 164.781 23.0966C164.372 22.7841 163.875 22.6278 163.29 22.6278C162.693 22.6278 162.19 22.7898 161.781 23.1136C161.372 23.4375 161.062 23.8864 160.852 24.4602C160.642 25.0341 160.537 25.6989 160.537 26.4545C160.537 27.2159 160.642 27.8892 160.852 28.4744C161.068 29.054 161.378 29.5085 161.781 29.8381C162.19 30.1619 162.693 30.3239 163.29 30.3239ZM181.688 27.4261V19.9091H185.319V33H181.833V30.6222H181.696C181.401 31.3892 180.91 32.0057 180.222 32.4716C179.54 32.9375 178.708 33.1705 177.725 33.1705C176.85 33.1705 176.08 32.9716 175.415 32.5739C174.75 32.1761 174.231 31.6108 173.856 30.8778C173.486 30.1449 173.299 29.267 173.293 28.2443V19.9091H176.924V27.5966C176.929 28.3693 177.137 28.9801 177.546 29.429C177.955 29.8778 178.503 30.1023 179.191 30.1023C179.628 30.1023 180.037 30.0028 180.418 29.804C180.799 29.5994 181.106 29.2983 181.339 28.9006C181.577 28.5028 181.694 28.0114 181.688 27.4261Z" fill="black"/>
</svg>
